<svg width="38" height="38" viewBox="0 0 38 38" fill="none" xmlns="http://www.w3.org/2000/svg">
<path d="M22.0479 3.96472C22.6686 3.96467 23.2786 4.12681 23.8174 4.43508C24.3562 4.74335 24.805 5.18705 25.1195 5.72222L26.4084 7.9183H29.6875C31.0519 7.9183 32.3606 8.46023 33.3256 9.42492C34.2905 10.3896 34.8329 11.6981 34.8333 13.0626V28.1042C34.8333 28.78 34.7002 29.4491 34.4416 30.0734C34.183 30.6978 33.804 31.265 33.3261 31.7429C32.8483 32.2207 32.281 32.5997 31.6567 32.8583C31.0324 33.117 30.3632 33.2501 29.6875 33.2501H8.31246C6.9477 33.2501 5.63884 32.7079 4.67381 31.7429C3.70877 30.7778 3.16663 29.469 3.16663 28.1042V13.0626C3.16663 11.6978 3.70877 10.3889 4.67381 9.4239C5.63884 8.45887 6.9477 7.91672 8.31246 7.91672H11.6058L12.9912 5.66205C13.3098 5.14307 13.756 4.7144 14.2874 4.41697C14.8188 4.11955 15.4175 3.9633 16.0265 3.96313H22.0479V3.96472ZM22.0479 6.33972H16.0265C15.8532 6.33986 15.682 6.37792 15.525 6.45122C15.368 6.52453 15.229 6.6313 15.1176 6.76405L15.0147 6.90655L13.2841 9.72488C13.178 9.89798 13.0293 10.041 12.8522 10.1402C12.675 10.2394 12.4754 10.2916 12.2724 10.2917H8.31404C7.95004 10.2915 7.58956 10.363 7.2532 10.5022C6.91685 10.6413 6.61121 10.8454 6.35374 11.1027C6.09628 11.36 5.89204 11.6656 5.75269 12.0018C5.61335 12.3381 5.54163 12.6985 5.54163 13.0626V28.1042C5.54163 29.6337 6.78296 30.8751 8.31246 30.8751H29.6875C30.4223 30.8751 31.1271 30.5831 31.6467 30.0635C32.1664 29.5439 32.4583 28.8391 32.4583 28.1042V13.0626C32.4583 12.3277 32.1664 11.6229 31.6467 11.1033C31.1271 10.5836 30.4223 10.2917 29.6875 10.2917H25.7291C25.5221 10.2918 25.3187 10.2378 25.139 10.1351C24.9593 10.0323 24.8096 9.88435 24.7047 9.70588L23.0707 6.92397C22.966 6.74573 22.8165 6.59793 22.6371 6.49518C22.4577 6.39244 22.2546 6.3383 22.0479 6.33813V6.33972ZM19 12.6667C20.8896 12.6667 22.7019 13.4174 24.0381 14.7536C25.3743 16.0898 26.125 17.9021 26.125 19.7917C26.125 21.6814 25.3743 23.4937 24.0381 24.8299C22.7019 26.166 20.8896 26.9167 19 26.9167C17.1103 26.9167 15.298 26.166 13.9618 24.8299C12.6256 23.4937 11.875 21.6814 11.875 19.7917C11.875 17.9021 12.6256 16.0898 13.9618 14.7536C15.298 13.4174 17.1103 12.6667 19 12.6667ZM19 15.0417C18.3762 15.0417 17.7585 15.1646 17.1822 15.4033C16.6059 15.642 16.0823 15.9919 15.6412 16.433C15.2001 16.874 14.8502 17.3977 14.6115 17.974C14.3728 18.5503 14.25 19.1679 14.25 19.7917C14.25 20.4155 14.3728 21.0332 14.6115 21.6095C14.8502 22.1858 15.2001 22.7094 15.6412 23.1505C16.0823 23.5916 16.6059 23.9414 17.1822 24.1801C17.7585 24.4189 18.3762 24.5417 19 24.5417C20.2597 24.5417 21.4679 24.0413 22.3587 23.1505C23.2495 22.2597 23.75 21.0515 23.75 19.7917C23.75 18.5319 23.2495 17.3238 22.3587 16.433C21.4679 15.5422 20.2597 15.0417 19 15.0417Z" fill="#333333"/>
</svg>
