<svg width="41" height="36" viewBox="0 0 41 36" fill="none" xmlns="http://www.w3.org/2000/svg">
<path d="M34.7549 5.26644C31.4189 2.32012 27.016 0.48741 22.3051 0.0842716C17.5942 -0.318867 12.8707 0.732829 8.94881 3.05805C5.02692 5.38326 2.15246 8.83629 0.821006 12.8218C-0.510452 16.8073 -0.215476 21.0756 1.65508 24.8907C1.85004 25.2453 1.91401 25.6445 1.83807 26.0325L0.0488852 33.5789C-0.0200467 33.8683 -0.00597065 34.1681 0.0898484 34.4515C0.185667 34.7348 0.360227 34.9929 0.597838 35.2024C0.792623 35.3721 1.02455 35.5054 1.27963 35.5943C1.53471 35.6832 1.80766 35.7259 2.08204 35.7198H2.48868L11.1906 34.1855C11.6329 34.1388 12.0814 34.1942 12.4918 34.3461C16.8397 35.9874 21.704 36.2462 26.2461 35.0779C30.7882 33.9096 34.7234 31.3874 37.3734 27.9461C40.0233 24.5048 41.2218 20.36 40.7624 16.2264C40.303 12.0928 38.2143 8.22932 34.8566 5.30212L34.7549 5.26644ZM12.2478 19.6635C11.8457 19.6635 11.4526 19.5589 11.1183 19.3629C10.7839 19.1668 10.5233 18.8882 10.3694 18.5622C10.2156 18.2362 10.1753 17.8775 10.2537 17.5315C10.3322 17.1854 10.5258 16.8675 10.8102 16.618C11.0945 16.3685 11.4568 16.1986 11.8512 16.1298C12.2456 16.0609 12.6544 16.0962 13.0259 16.2313C13.3974 16.3663 13.7149 16.595 13.9383 16.8883C14.1618 17.1817 14.281 17.5267 14.281 17.8795C14.281 18.3527 14.0668 18.8064 13.6855 19.141C13.3042 19.4756 12.7871 19.6635 12.2478 19.6635V19.6635ZM20.3805 19.6635C19.9784 19.6635 19.5853 19.5589 19.2509 19.3629C18.9166 19.1668 18.656 18.8882 18.5021 18.5622C18.3482 18.2362 18.3079 17.8775 18.3864 17.5315C18.4648 17.1854 18.6585 16.8675 18.9428 16.618C19.2272 16.3685 19.5894 16.1986 19.9838 16.1298C20.3782 16.0609 20.787 16.0962 21.1585 16.2313C21.53 16.3663 21.8476 16.595 22.071 16.8883C22.2944 17.1817 22.4136 17.5267 22.4136 17.8795C22.4136 18.3527 22.1994 18.8064 21.8181 19.141C21.4368 19.4756 20.9197 19.6635 20.3805 19.6635ZM28.5131 19.6635C28.111 19.6635 27.7179 19.5589 27.3835 19.3629C27.0492 19.1668 26.7886 18.8882 26.6347 18.5622C26.4808 18.2362 26.4406 17.8775 26.519 17.5315C26.5975 17.1854 26.7911 16.8675 27.0755 16.618C27.3598 16.3685 27.7221 16.1986 28.1165 16.1298C28.5109 16.0609 28.9197 16.0962 29.2912 16.2313C29.6627 16.3663 29.9802 16.595 30.2036 16.8883C30.427 17.1817 30.5463 17.5267 30.5463 17.8795C30.5463 18.3527 30.3321 18.8064 29.9508 19.141C29.5695 19.4756 29.0523 19.6635 28.5131 19.6635Z" fill="white"/>
</svg>
