<svg width="147" height="90" viewBox="0 0 147 90" fill="none" xmlns="http://www.w3.org/2000/svg">
<g filter="url(#filter0_d_104_87)">
<rect x="4" width="139" height="82" rx="40" fill="#FF4343"/>
</g>
<path d="M48.8374 48.1758L44.0848 43.9515C43.6418 43.561 43.2954 43.0925 43.0679 42.5761C42.8404 42.0597 42.7368 41.5067 42.7636 40.9526C42.7905 40.3986 42.9472 39.8556 43.2238 39.3584C43.5004 38.8613 43.8908 38.421 44.3699 38.0658C49.7745 34.2037 56.1229 31.5222 62.9051 30.2368C69.1651 28.9966 75.6556 28.9966 81.9156 30.2368C88.7258 31.5306 95.0974 34.2319 100.514 38.1221C100.992 38.4763 101.381 38.915 101.658 39.4103C101.934 39.9056 102.092 40.4467 102.12 40.999C102.148 41.5513 102.047 42.1029 101.822 42.6185C101.598 43.1341 101.255 43.6025 100.815 43.9938L96.0625 48.218C95.3013 48.9081 94.2837 49.3286 93.1994 49.4011C92.1151 49.4737 91.0382 49.1933 90.1693 48.6123C88.4477 47.4387 86.5824 46.4421 84.6087 45.6412C83.8286 45.3267 83.1662 44.82 82.7001 44.1811C82.234 43.5422 81.9837 42.798 81.9789 42.0366L81.9789 38.46C75.7576 36.9393 69.1898 36.9393 62.9685 38.46V42.0366C62.9637 42.798 62.7134 43.5422 62.2473 44.1811C61.7813 44.82 61.1189 45.3267 60.3387 45.6412C58.3651 46.4421 56.4997 47.4387 54.7782 48.6123C53.9 49.1998 52.8096 49.4799 51.7143 49.3995C50.6189 49.319 49.595 48.8835 48.8374 48.1758Z" fill="white"/>
<defs>
<filter id="filter0_d_104_87" x="0" y="0" width="147" height="90" filterUnits="userSpaceOnUse" color-interpolation-filters="sRGB">
<feFlood flood-opacity="0" result="BackgroundImageFix"/>
<feColorMatrix in="SourceAlpha" type="matrix" values="0 0 0 0 0 0 0 0 0 0 0 0 0 0 0 0 0 0 127 0" result="hardAlpha"/>
<feOffset dy="4"/>
<feGaussianBlur stdDeviation="2"/>
<feComposite in2="hardAlpha" operator="out"/>
<feColorMatrix type="matrix" values="0 0 0 0 0 0 0 0 0 0 0 0 0 0 0 0 0 0 0.25 0"/>
<feBlend mode="normal" in2="BackgroundImageFix" result="effect1_dropShadow_104_87"/>
<feBlend mode="normal" in="SourceGraphic" in2="effect1_dropShadow_104_87" result="shape"/>
</filter>
</defs>
</svg>
