<svg width="49" height="44" viewBox="0 0 49 44" fill="none" xmlns="http://www.w3.org/2000/svg">
<path fill-rule="evenodd" clip-rule="evenodd" d="M20.5745 3.32739C21.4836 3.08105 22.4437 3.03009 23.3784 3.17858C24.3131 3.32707 25.1965 3.67089 25.9579 4.1826C26.7194 4.69432 27.3378 5.35975 27.764 6.12578C28.1901 6.89181 28.4121 7.73723 28.4123 8.59456V35.4052C28.4121 36.2625 28.1901 37.108 27.764 37.874C27.3378 38.64 26.7194 39.3055 25.9579 39.8172C25.1965 40.3289 24.3131 40.6727 23.3784 40.8212C22.4437 40.9697 21.4836 40.9187 20.5745 40.6724L8.39781 37.3724C7.14381 37.0326 6.04448 36.3366 5.26288 35.3878C4.48128 34.439 4.05905 33.2879 4.05884 32.1052V11.8946C4.05905 10.7119 4.48128 9.56074 5.26288 8.61195C6.04448 7.66315 7.14381 6.96722 8.39781 6.62739L20.5745 3.32739V3.32739ZM30.4418 7.33322C30.4418 6.84699 30.6556 6.38068 31.0362 6.03686C31.4168 5.69304 31.933 5.49989 32.4712 5.49989H38.5596C40.1743 5.49989 41.7229 6.07935 42.8647 7.1108C44.0065 8.14225 44.6479 9.5412 44.6479 10.9999V12.8332C44.6479 13.3195 44.4341 13.7858 44.0535 14.1296C43.6729 14.4734 43.1567 14.6666 42.6185 14.6666C42.0802 14.6666 41.564 14.4734 41.1834 14.1296C40.8029 13.7858 40.589 13.3195 40.589 12.8332V10.9999C40.589 10.5137 40.3752 10.0473 39.9946 9.70353C39.614 9.35971 39.0978 9.16656 38.5596 9.16656H32.4712C31.933 9.16656 31.4168 8.9734 31.0362 8.62959C30.6556 8.28577 30.4418 7.81945 30.4418 7.33322ZM42.6185 29.3332C43.1567 29.3332 43.6729 29.5264 44.0535 29.8702C44.4341 30.214 44.6479 30.6803 44.6479 31.1666V32.9999C44.6479 34.4586 44.0065 35.8575 42.8647 36.889C41.7229 37.9204 40.1743 38.4999 38.5596 38.4999H32.4712C31.933 38.4999 31.4168 38.3067 31.0362 37.9629C30.6556 37.6191 30.4418 37.1528 30.4418 36.6666C30.4418 36.1803 30.6556 35.714 31.0362 35.3702C31.4168 35.0264 31.933 34.8332 32.4712 34.8332H38.5596C39.0978 34.8332 39.614 34.6401 39.9946 34.2962C40.3752 33.9524 40.589 33.4861 40.589 32.9999V31.1666C40.589 30.6803 40.8029 30.214 41.1834 29.8702C41.564 29.5264 42.0802 29.3332 42.6185 29.3332ZM18.265 20.1666C17.7268 20.1666 17.2106 20.3597 16.83 20.7035C16.4494 21.0473 16.2356 21.5137 16.2356 21.9999C16.2356 22.4861 16.4494 22.9524 16.83 23.2962C17.2106 23.6401 17.7268 23.8332 18.265 23.8332H18.2671C18.8053 23.8332 19.3215 23.6401 19.7021 23.2962C20.0827 22.9524 20.2965 22.4861 20.2965 21.9999C20.2965 21.5137 20.0827 21.0473 19.7021 20.7035C19.3215 20.3597 18.8053 20.1666 18.2671 20.1666H18.265Z" fill="white"/>
<path d="M42.6185 21.9999L38.5596 25.6666M32.4712 21.9999H42.6185H32.4712ZM42.6185 21.9999L38.5596 18.3333L42.6185 21.9999Z" stroke="white" stroke-width="4.16667" stroke-linecap="round" stroke-linejoin="round"/>
</svg>
