<svg width="42" height="42" viewBox="0 0 42 42" fill="none" xmlns="http://www.w3.org/2000/svg">
<path d="M31.9635 8.06377C28.0998 4.2001 21.808 4.2001 17.9485 8.06377L7.2434 18.7606C7.17367 18.8304 7.13676 18.9247 7.13676 19.0231C7.13676 19.1216 7.17367 19.2159 7.2434 19.2856L8.75687 20.7991C8.82605 20.868 8.9197 20.9067 9.01732 20.9067C9.11495 20.9067 9.20859 20.868 9.27777 20.7991L19.9829 10.1022C21.3118 8.77334 23.0795 8.04326 24.958 8.04326C26.8366 8.04326 28.6043 8.77334 29.9291 10.1022C31.258 11.4312 31.9881 13.1989 31.9881 15.0733C31.9881 16.9519 31.258 18.7155 29.9291 20.0444L19.019 30.9505L17.2512 32.7183C15.5983 34.3712 12.9118 34.3712 11.2588 32.7183C10.459 31.9185 10.0202 30.8562 10.0202 29.7241C10.0202 28.5921 10.459 27.5298 11.2588 26.73L22.0829 15.9101C22.3577 15.6394 22.7186 15.4876 23.1041 15.4876H23.1082C23.4938 15.4876 23.8506 15.6394 24.1213 15.9101C24.3961 16.1849 24.5438 16.5458 24.5438 16.9313C24.5438 17.3128 24.392 17.6737 24.1213 17.9444L15.2743 26.7833C15.2045 26.853 15.1676 26.9474 15.1676 27.0458C15.1676 27.1442 15.2045 27.2386 15.2743 27.3083L16.7877 28.8218C16.8569 28.8907 16.9506 28.9293 17.0482 28.9293C17.1458 28.9293 17.2395 28.8907 17.3086 28.8218L26.1516 19.9788C26.9678 19.1626 27.4149 18.0798 27.4149 16.9272C27.4149 15.7747 26.9637 14.6878 26.1516 13.8757C24.4659 12.1899 21.726 12.194 20.0403 13.8757L18.9903 14.9298L9.22035 24.6956C8.55725 25.3548 8.03163 26.1391 7.67396 27.003C7.31629 27.8669 7.13369 28.7932 7.13676 29.7282C7.13676 31.6272 7.87914 33.4114 9.22035 34.7526C10.6108 36.139 12.4319 36.8321 14.253 36.8321C16.0741 36.8321 17.8952 36.139 19.2815 34.7526L31.9635 22.0788C33.8297 20.2085 34.8633 17.7188 34.8633 15.0733C34.8674 12.4237 33.8338 9.93408 31.9635 8.06377Z" fill="#333333"/>
</svg>
