<svg width="48" height="44" viewBox="0 0 48 44" fill="none" xmlns="http://www.w3.org/2000/svg">
<path d="M43.8211 18.3181V24.8678C43.8212 25.2782 43.666 25.6763 43.3812 25.9961C43.0964 26.3158 42.6993 26.538 42.2555 26.6258L38.5028 27.3582C38.0289 28.3351 37.4364 29.2615 36.736 30.1202L37.9013 33.4257C38.0394 33.817 38.0252 34.2391 37.861 34.6221C37.6969 35.005 37.3927 35.3258 36.9989 35.531L30.7225 38.8131C30.3284 39.0161 29.8697 39.0924 29.4214 39.0293C28.973 38.9662 28.5617 38.7675 28.2546 38.4658L25.6652 35.9017C24.4922 36.0183 23.3086 36.0183 22.1356 35.9017L19.5521 38.4658C19.2449 38.7679 18.8332 38.9669 18.3845 39.03C17.9357 39.0931 17.4765 39.0166 17.0822 38.8131L10.8018 35.5382C10.4081 35.333 10.1039 35.0122 9.93972 34.6293C9.77558 34.2463 9.76139 33.8242 9.89951 33.4329L11.0648 30.1274C10.7062 29.6884 10.3716 29.2313 10.0688 28.7599C9.78597 28.3047 9.52902 27.8368 9.29995 27.3582L5.55125 26.624C5.10745 26.5366 4.71005 26.3148 4.42494 25.9954C4.13983 25.676 3.98412 25.2782 3.98364 24.8678L3.98364 18.3181C3.98412 17.9078 4.13983 17.5099 4.42494 17.1905C4.71005 16.8711 5.10745 16.6493 5.55125 16.5619L9.30194 15.8205C9.77581 14.8442 10.3684 13.9184 11.0687 13.0603L9.90349 9.75303C9.76588 9.36202 9.78033 8.94027 9.94444 8.5577C10.1086 8.17512 10.4125 7.8547 10.8058 7.64955L17.0862 4.37468C17.8969 3.95722 18.9227 4.10117 19.5541 4.72196L22.1435 7.28608C23.3165 7.16947 24.5002 7.16947 25.6731 7.28608L28.2626 4.72196C28.896 4.10117 29.9198 3.95722 30.7305 4.37468L37.0109 7.64955C37.4047 7.85477 37.7089 8.1755 37.873 8.55846C38.0371 8.94142 38.0513 9.36358 37.9132 9.75483L36.748 13.0603C37.4478 13.9184 38.0397 14.8441 38.5128 15.8205L42.2555 16.5619C42.6989 16.6496 43.0959 16.8716 43.3806 17.191C43.6653 17.5104 43.8207 17.908 43.8211 18.3181ZM32.326 29.4743L33.5211 27.9988C33.792 27.6659 34.041 27.3204 34.2681 26.9605C34.4852 26.6222 34.6804 26.2768 34.8577 25.9187L35.6724 24.2399L39.8374 23.4175V19.7648L35.6704 18.9425L34.8557 17.2637C34.4971 16.5313 34.053 15.8349 33.5291 15.189L32.334 13.7135L33.6287 10.0391L30.127 8.21276L27.2527 11.0612L25.2369 10.8596C24.3545 10.7697 23.4642 10.7697 22.5838 10.8596L20.568 11.0612L17.6877 8.21096L14.184 10.0391L15.4787 13.7117L14.2836 15.189C13.7571 15.8353 13.3091 16.5308 12.9471 17.2637L12.1324 18.9425L7.96739 19.7648V23.4175L12.1344 24.2453L12.9471 25.9187C13.3028 26.6525 13.7478 27.3483 14.2737 27.9934L15.4688 29.4707L14.1741 33.1414L17.6877 34.9714L20.558 32.123L22.5758 32.3245C23.4582 32.4145 24.3486 32.4145 25.229 32.3245L27.2447 32.123L30.119 34.9714L33.6207 33.145L32.326 29.4743V29.4743ZM31.8699 21.6002C31.8699 23.5091 31.0304 25.3398 29.5362 26.6896C28.042 28.0394 26.0155 28.7977 23.9024 28.7977C21.7893 28.7977 19.7627 28.0394 18.2685 26.6896C16.7743 25.3398 15.9349 23.5091 15.9349 21.6002C15.9349 19.6913 16.7743 17.8605 18.2685 16.5107C19.7627 15.1609 21.7893 14.4026 23.9024 14.4026C26.0155 14.4026 28.042 15.1609 29.5362 16.5107C31.0304 17.8605 31.8699 19.6913 31.8699 21.6002ZM19.9186 21.6002C19.9194 22.3049 20.1492 22.9939 20.5796 23.5817C21.0099 24.1695 21.6218 24.6302 22.3393 24.9067C23.0569 25.1832 23.8485 25.2633 24.616 25.1371C25.3835 25.0108 26.093 24.6838 26.6567 24.1966C27.2203 23.7094 27.6131 23.0834 27.7865 22.3963C27.9599 21.7092 27.9061 20.9912 27.6319 20.3315C27.3577 19.6717 26.8751 19.0993 26.2439 18.685C25.6128 18.2708 24.861 18.0331 24.0816 18.0014H24.8784H23.9024C22.8458 18.0014 21.8325 18.3806 21.0854 19.0555C20.3383 19.7304 19.9186 20.6457 19.9186 21.6002Z" fill="white"/>
</svg>
