<svg width="60" height="56" viewBox="0 0 60 56" fill="none" xmlns="http://www.w3.org/2000/svg">
<path d="M14.9904 12.25C13.0025 12.25 11.0961 12.9875 9.69042 14.3003C8.28479 15.613 7.49512 17.3935 7.49512 19.25V36.75C7.49512 38.6065 8.28479 40.387 9.69042 41.6997C11.0961 43.0125 13.0025 43.75 14.9904 43.75H33.7284C35.7163 43.75 37.6227 43.0125 39.0284 41.6997C40.434 40.387 41.2237 38.6065 41.2237 36.75V35L47.9694 39.725C48.387 40.0175 48.8835 40.1956 49.4034 40.2394C49.9233 40.2832 50.4459 40.1909 50.9128 39.9729C51.3797 39.7549 51.7723 39.4197 52.0468 39.005C52.3212 38.5904 52.4665 38.1125 52.4665 37.625V18.375C52.4665 17.8875 52.3212 17.4096 52.0468 16.995C51.7723 16.5803 51.3797 16.2451 50.9128 16.0271C50.4459 15.8091 49.9233 15.7168 49.4034 15.7606C48.8835 15.8044 48.387 15.9825 47.9694 16.275L41.2237 21V19.25C41.2237 17.3935 40.434 15.613 39.0284 14.3003C37.6227 12.9875 35.7163 12.25 33.7284 12.25H14.9904ZM41.2237 25.375L48.7189 20.125V35.875L41.2237 30.625V25.375ZM37.4761 19.25V36.75C37.4761 37.6783 37.0812 38.5685 36.3784 39.2249C35.6756 39.8813 34.7224 40.25 33.7284 40.25H14.9904C13.9964 40.25 13.0432 39.8813 12.3404 39.2249C11.6376 38.5685 11.2427 37.6783 11.2427 36.75V19.25C11.2427 18.3217 11.6376 17.4315 12.3404 16.7751C13.0432 16.1187 13.9964 15.75 14.9904 15.75H33.7284C34.7224 15.75 35.6756 16.1187 36.3784 16.7751C37.0812 17.4315 37.4761 18.3217 37.4761 19.25Z" fill="white"/>
</svg>
