<svg width="52" height="47" viewBox="0 0 52 47" fill="none" xmlns="http://www.w3.org/2000/svg">
<path d="M40.7018 26.2914L40.7018 19.3518C40.7018 13.1264 36.021 7.882 29.6801 6.30482C29.0525 4.87666 27.5186 3.87036 25.7063 3.87036C23.894 3.87036 22.3602 4.87666 21.7326 6.30482C15.3916 7.88393 10.7109 13.1264 10.7109 19.3518L10.7109 26.2914L7.05418 29.5948C6.85487 29.7742 6.6968 29.9874 6.58908 30.2222C6.48135 30.457 6.42611 30.7088 6.42652 30.963L6.42652 34.8333C6.42652 35.3466 6.65221 35.8388 7.05395 36.2017C7.45569 36.5646 8.00057 36.7685 8.56872 36.7685L42.844 36.7685C43.4121 36.7685 43.957 36.5646 44.3587 36.2017C44.7605 35.8388 44.9862 35.3466 44.9862 34.8333V30.963C44.9866 30.7088 44.9313 30.457 44.8236 30.2222C44.7159 29.9874 44.5578 29.7742 44.3585 29.5948L40.7018 26.2914ZM40.7018 32.8981H10.7109V31.7641L14.3677 28.4608C14.567 28.2814 14.725 28.0681 14.8328 27.8333C14.9405 27.5985 14.9957 27.3468 14.9953 27.0926V19.3518C14.9953 14.0165 19.8003 9.67592 25.7063 9.67592C31.6124 9.67592 36.4174 14.0165 36.4174 19.3518V27.0926C36.4174 27.6073 36.6423 28.0989 37.045 28.4608L40.7018 31.7641V32.8981ZM25.7063 42.5741C27.033 42.5756 28.3272 42.2037 29.4091 41.51C30.491 40.8164 31.3068 39.8355 31.7431 38.7037L19.6696 38.7037C20.1059 39.8355 20.9217 40.8164 22.0036 41.51C23.0854 42.2037 24.3797 42.5756 25.7063 42.5741V42.5741Z" fill="white"/>
</svg>
